<svg xmlns="http://www.w3.org/2000/svg" width="32" height="32" viewBox="0 0 32 32">
  <!-- 背景透明 -->
  <!-- 白色毛发 -->
  <rect x="8" y="4" width="16" height="4" fill="#ffffff"/>
  <rect x="6" y="8" width="20" height="4" fill="#ffffff"/>
  <rect x="5" y="12" width="22" height="4" fill="#ffffff"/>
  <rect x="4" y="16" width="6" height="4" fill="#ffffff"/>
  <rect x="22" y="16" width="6" height="4" fill="#ffffff"/>
  <rect x="5" y="20" width="4" height="4" fill="#ffffff"/>
  <rect x="23" y="20" width="4" height="4" fill="#ffffff"/>
  <rect x="7" y="24" width="2" height="4" fill="#ffffff"/>
  <rect x="11" y="24" width="10" height="4" fill="#ffffff"/>
  <rect x="23" y="24" width="2" height="4" fill="#ffffff"/>
  <!-- 黑色面部 -->
  <rect x="10" y="10" width="12" height="10" fill="#000000"/>
  <!-- 蓝色眼睛 -->
  <rect x="14" y="14" width="2" height="2" fill="#00a8ff"/>
  <!-- 红色线条 -->
  <rect x="12" y="20" width="2" height="1" fill="#ff3b30"/>
  <rect x="14" y="21" width="2" height="1" fill="#ff3b30"/>
  <rect x="16" y="20" width="2" height="1" fill="#ff3b30"/>
  <!-- 耳机 -->
  <rect x="22" y="12" width="3" height="6" fill="#8e8e93"/>
  <rect x="25" y="14" width="2" height="2" fill="#000000"/>
  <!-- 火焰标志 -->
  <rect x="26" y="14" width="1" height="1" fill="#ff9500"/>
  <rect x="25" y="15" width="1" height="1" fill="#ff3b30"/>
  <rect x="26" y="15" width="1" height="1" fill="#ff9500"/>
</svg>