<?xml version="1.0" standalone="no"?><!DOCTYPE svg PUBLIC "-//W3C//DTD SVG 1.1//EN" "http://www.w3.org/Graphics/SVG/1.1/DTD/svg11.dtd"><svg t="1752616008171" class="icon" viewBox="0 0 1137 1024" version="1.1" xmlns="http://www.w3.org/2000/svg" p-id="5091" width="71.0625" height="64" xmlns:xlink="http://www.w3.org/1999/xlink"><path d="M760.433778 1001.073778H403.342222c-70.883556 0-136.874667-37.091556-172.202666-96.824889L52.622222 603.420444a189.553778 189.553778 0 0 1 0-193.592888l178.574222-300.885334A200.590222 200.590222 0 0 1 403.342222 12.117333h357.034667c70.883556 0 136.874667 37.148444 172.202667 96.824889l178.574222 300.885334a189.553778 189.553778 0 0 1 0 193.592888l-178.631111 300.828445a200.590222 200.590222 0 0 1-172.145778 96.824889z m-465.806222-132.494222a126.634667 126.634667 0 0 0 108.771555 61.155555h357.034667c44.714667 0 86.414222-23.438222 108.771555-61.155555l178.574223-300.828445a119.751111 119.751111 0 0 0 0-122.311111l-178.631112-300.828444a126.634667 126.634667 0 0 0-108.714666-61.098667H403.342222c-44.714667 0-86.414222 23.381333-108.771555 61.098667L116.053333 445.496889a119.751111 119.751111 0 0 0 0 122.254222l178.574223 300.828445z m287.232-164.352c-111.957333 0-203.036444-88.576-203.036445-197.518223s91.022222-197.518222 203.036445-197.518222c111.957333 0 202.979556 88.576 202.979555 197.518222s-91.022222 197.518222-202.979555 197.518223z m0-323.697778c-71.509333 0-129.706667 56.604444-129.706667 126.179555 0 69.575111 58.197333 126.179556 129.706667 126.179556s129.706667-56.604444 129.706666-126.179556c0-69.575111-58.197333-126.179556-129.706666-126.179555z" fill="#000000" p-id="5092"></path></svg>